<svg width="37" height="32" viewBox="0 0 37 32" fill="none" xmlns="http://www.w3.org/2000/svg">
<path d="M18.6143 23.2541C24.7596 23.2541 29.7414 18.2723 29.7414 12.127C29.7414 5.98174 24.7596 1 18.6143 1C12.469 1 7.4873 5.98174 7.4873 12.127C7.4873 18.2723 12.469 23.2541 18.6143 23.2541Z" stroke="#374FA2" stroke-width="2" stroke-miterlimit="10"/>
<path d="M8.1381 15.906L1 22.9042L7.59824 23.494L7.95814 30.0522L15.5261 22.8542" stroke="#374FA2" stroke-width="2" stroke-linecap="round" stroke-linejoin="round"/>
<path d="M29.0015 16.136L35.9996 22.8742L29.4014 23.464L29.0415 30.0223L21.5635 22.8642" stroke="#374FA2" stroke-width="2" stroke-linecap="round" stroke-linejoin="round"/>
<path d="M18.6145 19.3851C22.623 19.3851 25.8726 16.1356 25.8726 12.1271C25.8726 8.11853 22.623 4.86899 18.6145 4.86899C14.606 4.86899 11.3564 8.11853 11.3564 12.1271C11.3564 16.1356 14.606 19.3851 18.6145 19.3851Z" stroke="#374FA2" stroke-width="2" stroke-miterlimit="10"/>
</svg>
