<svg version="1.1" id="Layer_1" xmlns="http://www.w3.org/2000/svg" xmlns:xlink="http://www.w3.org/1999/xlink" x="0px" y="0px"
	 width="100%" viewBox="0 0 1024 1024" enable-background="new 0 0 1024 1024" xml:space="preserve">
<path fill="#000000" opacity="1.000000" stroke="none" 
	d="
M620.713745,357.766174 
	C622.820496,358.051117 624.474487,358.257263 626.100281,358.597626 
	C633.050232,360.052765 633.901489,361.051910 634.293884,368.217224 
	C634.486877,371.741608 634.721008,374.995178 638.261719,377.305023 
	C640.554810,378.800964 640.792786,381.855530 639.157227,384.061462 
	C636.801880,387.238403 637.974792,389.515289 640.002686,391.928802 
	C653.580627,387.062775 655.912537,373.009552 644.782166,363.096313 
	C637.167908,356.314758 627.744507,352.580963 618.272888,349.499725 
	C612.062561,347.479462 610.101624,343.194305 609.037476,337.815582 
	C608.322571,334.202484 611.119385,331.146179 614.554321,332.151398 
	C639.646851,339.494690 663.564880,349.292053 680.275574,370.614868 
	C693.317810,387.256714 691.917114,405.946869 685.213684,424.711792 
	C683.806702,428.650391 680.421997,430.966736 676.820496,432.925598 
	C672.157043,435.462067 667.571045,438.140839 662.843506,440.819672 
	C663.077332,441.926819 663.133606,442.759766 663.427734,443.497925 
	C666.231689,450.534393 666.233887,450.498260 673.332886,448.385071 
	C691.588684,442.950958 709.822205,443.673859 728.014038,448.714081 
	C729.565796,449.144012 731.306702,449.360840 732.555115,451.188812 
	C730.644836,455.364075 726.021790,455.629211 722.046509,458.123779 
	C744.267456,465.904968 760.595825,479.776825 769.559631,501.444641 
	C778.459045,522.956665 777.918945,544.347229 767.666443,565.232117 
	C750.593201,600.011047 710.507996,616.085999 673.133118,602.907715 
	C651.388428,595.240601 635.865723,580.389099 627.541931,558.834167 
	C619.311401,537.520569 621.273682,516.432495 631.468994,496.422455 
	C629.948486,494.723724 628.606750,495.217682 627.306885,495.329681 
	C626.039429,495.438934 624.790466,496.404694 622.812500,494.996552 
	C625.365112,488.187164 628.819153,481.678986 633.053711,475.570007 
	C637.774719,468.759155 643.931213,463.447449 650.840637,458.961731 
	C656.771973,455.111084 656.969116,454.029114 652.602844,447.815765 
	C647.257446,450.228302 643.123474,454.354675 638.964539,458.295471 
	C626.565674,470.044067 615.147827,483.110748 613.145142,500.538666 
	C610.961487,519.542236 608.535706,539.171875 619.294189,557.040466 
	C620.634399,559.266357 621.041992,561.522522 619.864868,564.154053 
	C619.162415,565.724426 619.321411,567.735535 619.308899,569.549927 
	C619.241089,579.381531 619.306641,589.214478 619.190063,599.045288 
	C619.128052,604.274597 616.400146,607.104797 611.152527,607.159851 
	C599.155579,607.285522 587.155579,607.278992 575.158447,607.163147 
	C569.659058,607.109985 567.671204,604.651917 567.669495,598.328430 
	C567.658508,557.500732 567.678223,516.673035 567.676086,475.845306 
	C567.675964,473.363068 567.940491,470.850464 566.696228,467.277771 
	C548.856384,498.802002 531.417480,529.617615 513.110107,561.967834 
	C494.699097,529.183533 476.942657,497.564911 459.195709,465.963165 
	C455.981659,467.557068 455.981659,467.557068 454.077332,471.629517 
	C453.221405,472.180481 452.500824,471.748322 451.789368,471.305115 
	C451.063843,470.853210 450.323730,470.513123 449.072662,471.038391 
	C447.419342,473.551331 447.424622,476.253723 450.307373,478.094635 
	C456.985260,482.359039 458.397339,488.325806 458.323792,495.962677 
	C457.994781,530.120605 458.265442,564.284058 458.286957,598.445557 
	C458.291016,604.864624 456.079498,607.041748 449.519684,607.067871 
	C438.188171,607.112976 426.855835,607.122192 415.524719,607.032776 
	C408.177032,606.974792 405.754913,604.418884 405.707397,597.009338 
	C405.679626,592.676819 405.656555,588.343506 405.707489,584.011475 
	C405.748016,580.566406 404.063721,578.770691 400.704712,578.370056 
	C398.392792,578.094360 396.074554,577.832153 393.784302,577.423096 
	C390.141785,576.772339 387.611847,578.107605 385.072418,580.840942 
	C363.327271,604.247192 336.505646,613.093933 305.759735,604.683472 
	C264.340454,593.353333 243.193878,551.515198 253.008591,512.781128 
	C257.436615,495.305878 267.055176,481.354645 281.155762,470.312744 
	C282.417114,469.325043 284.109650,468.675323 284.684509,466.761047 
	C283.008728,464.191345 279.255951,465.554779 277.410278,463.070679 
	C277.486511,460.673004 279.589111,459.924469 281.136322,458.859253 
	C299.795288,446.013245 320.414978,441.964081 342.508575,446.083923 
	C368.757629,450.978638 388.242828,465.874237 402.525696,488.060974 
	C403.945038,490.265747 404.369904,492.635742 404.366058,495.190369 
	C404.341522,511.521210 404.373688,527.852234 404.336121,544.183044 
	C404.321716,550.432800 400.406738,555.400757 398.459869,561.013306 
	C397.060730,565.046692 397.841034,566.647034 401.954041,566.852539 
	C402.784485,566.894043 403.612488,567.011780 404.438019,567.121277 
	C410.497101,567.924561 411.643005,566.983337 411.651154,560.999512 
	C411.679993,539.835999 411.690765,518.672485 411.696075,497.508942 
	C411.705139,461.529419 411.695099,425.549866 411.717316,389.570343 
	C411.721466,382.838654 411.773834,382.865997 418.318268,382.873871 
	C428.150085,382.885742 437.982025,382.833527 447.813843,382.849640 
	C454.427063,382.860474 456.344757,384.843323 456.342529,391.521576 
	C456.341980,393.188019 456.333893,394.854431 456.335815,396.520874 
	C456.349579,408.388702 461.348877,413.483612 473.356964,413.727325 
	C478.687378,413.835480 484.021851,413.728851 489.353668,413.789551 
	C491.797516,413.817383 493.670715,413.208984 493.952881,410.406921 
	C494.933777,400.666992 501.671051,395.726013 509.851501,393.040405 
	C533.714417,385.206390 557.945984,379.575562 583.317139,384.767426 
	C588.893616,385.908661 594.249695,387.688538 599.046082,390.897430 
	C605.512329,395.223450 609.800476,400.761963 609.196228,409.381744 
	C610.202087,408.989441 611.023315,408.819550 611.673462,408.390564 
	C615.204712,406.060730 621.847168,405.988678 622.084229,401.819946 
	C622.399109,396.282135 618.977173,390.767487 615.997131,385.758484 
	C614.599976,383.410034 612.153381,384.367676 610.072327,384.842712 
	C607.130676,385.514282 604.877869,385.138214 603.713013,381.841675 
	C601.196167,374.719299 599.247253,373.820984 591.518555,376.510162 
	C588.774963,377.464813 586.641541,377.220459 584.801392,375.033325 
	C583.182007,373.108551 582.523804,370.911987 583.725525,368.554077 
	C584.868652,366.311005 586.787048,364.740753 589.345398,365.208557 
	C592.869141,365.852905 595.517822,366.037354 595.989624,361.320862 
	C596.191711,359.300293 598.449707,359.007080 600.318726,358.605560 
	C606.925232,357.186279 613.600220,357.882965 620.713745,357.766174 
M730.635681,497.113281 
	C728.070801,500.366974 725.599792,503.701202 722.905151,506.843628 
	C721.342407,508.666016 721.059998,510.165253 722.733276,512.036377 
	C723.828369,513.261108 724.811157,514.642883 725.573059,516.096436 
	C726.942139,518.708191 728.771790,518.931885 731.364075,517.974365 
	C736.491333,516.080627 741.682617,514.346497 746.901672,512.720398 
	C750.013916,511.750702 750.814880,510.303955 749.175781,507.277649 
	C747.028748,503.313660 744.554321,499.614197 741.600647,496.234222 
	C736.290894,490.158142 735.896423,490.187622 730.635681,497.113281 
M290.413239,515.943665 
	C293.613495,516.622375 296.533295,520.165710 300.091187,517.221008 
	C305.253693,512.948242 305.550659,509.018188 301.300354,503.652466 
	C298.824768,500.527191 296.172455,497.538239 293.774628,494.356110 
	C291.425354,491.238312 289.188812,491.634430 286.874786,494.233826 
	C283.669556,497.834290 280.622620,501.539856 278.355713,505.852692 
	C276.652222,509.093597 277.437866,511.266388 280.758789,512.535034 
	C283.705536,513.660706 286.706482,514.644531 290.413239,515.943665 
M734.786072,538.665405 
	C739.459656,540.340393 744.172668,541.914917 748.792725,543.726318 
	C751.772400,544.894653 753.434265,544.369080 754.116638,541.015320 
	C755.289429,535.250732 755.011658,529.482666 754.425171,523.718567 
	C754.155945,521.072266 752.705750,520.073364 749.903503,521.052063 
	C744.906189,522.797546 739.823608,524.301147 734.764954,525.867981 
	C731.851807,526.770264 729.288147,527.521606 729.191895,531.616516 
	C729.101013,535.485718 730.508057,537.522034 734.786072,538.665405 
M742.890320,565.355286 
	C745.228699,561.816589 748.212952,558.631287 749.361572,553.611389 
	C742.281311,551.030762 735.379272,548.338928 728.352051,546.027588 
	C724.791260,544.856445 724.379883,548.807861 722.643250,550.480286 
	C721.317261,551.757202 719.493713,553.422974 721.227905,555.627747 
	C725.694824,561.306396 730.248657,566.916565 734.814819,572.612732 
	C736.172241,571.719238 736.932617,571.361084 737.510681,570.811279 
	C739.190247,569.213806 740.796753,567.539551 742.890320,565.355286 
M703.420288,576.246338 
	C703.412476,577.576355 703.382507,578.906677 703.400635,580.236328 
	C703.474976,585.686340 704.332764,586.475281 709.536743,585.479431 
	C714.122681,584.601990 718.487000,583.016541 722.754089,581.104370 
	C726.408264,579.466919 727.722107,577.633362 724.567871,574.115479 
	C721.690247,570.906128 718.967163,567.490295 716.654724,563.860535 
	C714.163696,559.950806 711.494019,559.350708 707.095093,560.835266 
	C702.726013,562.309692 703.367554,565.257202 703.346802,568.333435 
	C703.331055,570.660522 703.390076,572.988159 703.420288,576.246338 
M674.346191,580.340576 
	C679.081726,582.847595 684.117676,584.531128 689.357910,585.536011 
	C691.759094,585.996521 694.437195,585.907715 694.513550,582.592896 
	C694.651245,576.618652 694.511292,570.632202 694.295837,564.657776 
	C694.146912,560.527832 690.254395,561.476990 687.915100,560.395020 
	C686.027344,559.521912 684.168884,559.247986 682.661743,561.401428 
	C679.422363,566.030212 676.074890,570.584290 672.719666,575.130554 
	C671.191406,577.201233 671.454590,578.772583 674.346191,580.340576 
M289.863068,571.435669 
	C292.177490,571.949219 293.085999,570.084045 294.229309,568.754089 
	C297.047852,565.475403 299.643677,561.995728 302.584442,558.834412 
	C305.358704,555.852112 305.859863,553.269958 303.391052,549.628235 
	C300.865906,545.903320 298.191315,545.675354 294.466125,547.182739 
	C290.465302,548.801697 286.271606,549.943970 282.269989,551.561279 
	C277.856415,553.345032 277.119995,555.661743 279.649384,559.764893 
	C282.269348,564.014893 285.098145,568.146790 289.863068,571.435669 
M289.412537,525.200134 
	C285.315338,523.881042 281.222473,522.548157 277.119293,521.247986 
	C274.601196,520.450134 272.908081,521.141479 272.403625,523.940186 
	C271.457245,529.190735 270.994476,534.405334 272.312500,539.705261 
	C273.163208,543.126160 274.844788,544.600342 278.338928,543.399231 
	C283.194305,541.730103 288.049896,540.061218 292.895386,538.363708 
	C295.727539,537.371521 296.805878,535.439697 297.015472,532.345520 
	C297.369690,527.114929 293.513428,526.650879 289.412537,525.200134 
M660.454773,539.897095 
	C662.022522,539.343811 663.661560,538.935364 665.143188,538.206909 
	C668.184021,536.711914 669.198364,528.913757 666.279419,527.481567 
	C659.637085,524.222473 652.537781,522.128235 645.102966,520.635559 
	C642.645813,529.042908 642.643005,536.676331 645.946228,544.601746 
	C650.886963,543.009521 655.299866,541.587402 660.454773,539.897095 
M711.171387,478.446045 
	C704.326721,477.648560 704.323364,477.648529 704.275269,484.497955 
	C704.244995,488.813995 704.359009,493.136230 704.159485,497.444153 
	C704.010254,500.665985 705.944519,501.730621 708.479492,502.594604 
	C711.047546,503.469849 713.501831,504.557312 715.670532,501.782318 
	C719.042419,497.467896 722.474548,493.200104 725.914490,488.939484 
	C727.972107,486.390869 727.703430,484.574768 724.539978,483.196381 
	C720.431763,481.406372 716.409119,479.421967 711.171387,478.446045 
M665.730957,495.799469 
	C664.153076,494.112274 662.976013,490.781372 659.953186,493.677887 
	C654.897766,498.521881 650.610229,503.943176 648.283997,511.447144 
	C654.243469,513.522827 659.873535,515.427429 665.458679,517.455627 
	C667.847168,518.322998 670.231140,519.682190 671.909241,516.515015 
	C673.478027,513.554016 677.328308,511.166809 673.644775,506.960388 
	C670.810364,503.723633 668.619446,499.923401 665.730957,495.799469 
M338.650635,478.011597 
	C331.404388,476.657928 330.379608,477.486694 330.362640,484.741089 
	C330.356018,487.568237 330.325836,490.396454 330.387268,493.222412 
	C330.469177,496.989746 330.872192,500.028809 335.581268,501.552002 
	C340.496094,503.141815 342.636871,500.898926 344.941711,497.565430 
	C346.831329,494.832489 348.762268,492.106812 350.913422,489.581055 
	C353.898499,486.076294 352.771179,483.558502 349.316315,481.475616 
	C346.285217,479.648163 342.931152,478.699005 338.650635,478.011597 
M671.260498,561.785400 
	C672.658081,559.926575 674.068970,558.077576 675.448242,556.205200 
	C676.287354,555.066101 676.499207,553.998901 675.749756,552.557373 
	C672.747620,546.783142 671.066162,546.036621 664.919922,548.192200 
	C663.040283,548.851379 661.166687,549.528748 659.299316,550.221863 
	C646.997070,554.787842 646.962341,554.919250 655.210938,565.097656 
	C661.893860,573.344055 662.356262,573.344482 668.694153,565.110535 
	C669.403564,564.189026 670.112915,563.267517 671.260498,561.785400 
M303.704712,491.833099 
	C306.141876,494.961334 308.493591,498.161438 311.044525,501.194000 
	C312.926300,503.431122 315.445404,503.194794 317.906586,502.271667 
	C320.261780,501.388275 321.785492,499.835876 321.763824,497.097778 
	C321.724487,492.130676 321.762512,487.162994 321.744324,482.195618 
	C321.730713,478.472534 319.749542,477.284180 316.242340,477.802643 
	C312.418213,478.367950 308.930786,479.763977 305.491699,481.463409 
	C298.464355,484.935883 298.404144,485.019562 303.704712,491.833099 
M305.395660,582.270874 
	C309.396912,583.312866 313.382751,584.420471 317.406860,585.365234 
	C319.070374,585.755798 320.722656,585.636536 321.638214,583.733459 
	C323.337555,580.201172 321.630188,574.073486 318.192261,572.215820 
	C314.964264,570.471558 314.038147,568.154419 315.650757,564.831848 
	C316.316803,563.459534 318.029083,561.985107 315.653900,560.675659 
	C313.752777,559.627625 312.504059,560.928040 311.436096,562.240234 
	C308.612396,565.709595 305.883514,569.256287 303.055756,572.722290 
	C298.382324,578.450623 298.362091,578.434082 305.395660,582.270874 
M695.576782,495.485931 
	C695.573975,490.824524 695.625977,486.162170 695.548950,481.501984 
	C695.497314,478.383453 694.028809,476.864532 690.733215,477.666168 
	C689.119324,478.058746 687.457153,478.255310 685.846619,478.659302 
	C683.071411,479.355438 681.880798,480.768829 683.416992,483.706024 
	C685.806274,488.274536 687.973328,492.958923 690.329529,497.545380 
	C691.058716,498.964783 691.729431,500.966064 693.829834,500.484589 
	C696.046692,499.976471 695.127686,497.753815 695.576782,495.485931 
M349.084625,580.696228 
	C350.389832,579.701477 352.083160,578.800842 351.376770,576.785645 
	C350.688446,574.822083 349.307678,573.278015 347.049286,573.233704 
	C342.922180,573.152771 338.741333,572.856750 334.675110,573.374512 
	C329.622772,574.017822 331.371765,578.285828 331.425323,581.286865 
	C331.476776,584.169495 332.889130,585.687256 336.294983,585.116699 
	C340.602081,584.395203 344.528381,582.802612 349.084625,580.696228 
M366.100128,504.669281 
	C368.344940,504.538757 370.795837,505.051758 372.668793,502.267059 
	C370.037323,497.905487 367.458740,492.504791 362.148956,491.573944 
	C357.583710,490.773621 356.442169,496.714539 353.724548,499.611176 
	C353.613342,499.729675 353.536743,499.882050 353.450867,500.022827 
	C351.742035,502.823517 352.527191,504.454132 355.793884,504.604156 
	C358.924957,504.747894 362.066681,504.658508 366.100128,504.669281 
M449.177643,460.717865 
	C449.962555,456.854492 447.378448,455.279358 444.681824,453.561951 
	C442.429199,458.426178 443.795471,460.819336 449.177643,460.717865 
z"/>
<path fill="#000000" opacity="1.000000" stroke="none" 
	d="
M346.590088,640.548584 
	C348.545563,647.457520 350.380646,653.975769 352.513580,661.552124 
	C355.738312,654.792053 356.732361,648.543518 358.403442,642.549011 
	C362.525818,627.761353 362.391876,627.723938 377.534027,627.726379 
	C385.357086,627.727600 385.375183,627.727661 385.378723,635.680176 
	C385.386353,652.840637 385.240692,670.002747 385.457855,687.160400 
	C385.515686,691.730957 384.084930,693.282715 379.481628,693.191772 
	C368.566254,692.976074 369.739838,693.801392 369.712372,683.545593 
	C369.689758,675.100952 369.707764,666.656189 369.047089,658.096802 
	C366.136444,667.911560 362.730835,677.614685 360.485168,687.579346 
	C358.927429,694.491394 354.026428,692.302673 350.009186,692.835266 
	C346.042267,693.361145 345.564240,690.189514 344.795471,687.463074 
	C342.224365,678.344910 339.666809,669.222961 336.235229,660.173950 
	C336.235229,669.173767 336.040283,678.179688 336.319794,687.170837 
	C336.453857,691.483093 335.081909,693.059082 330.687866,693.107422 
	C319.906555,693.225952 319.917297,693.402344 319.934784,682.654358 
	C319.961304,666.327148 320.099152,649.998474 319.911652,633.673645 
	C319.859833,629.164124 321.200867,627.152222 325.886993,627.648315 
	C328.523315,627.927307 331.213165,627.701416 333.878876,627.702148 
	C343.150146,627.704895 343.151398,627.704407 345.595490,636.776245 
	C345.898346,637.900330 346.178802,639.030518 346.590088,640.548584 
z"/>
<path fill="#000000" opacity="1.000000" stroke="none" 
	d="
M403.113586,424.985657 
	C403.112122,429.733490 403.112122,433.984985 403.112122,437.694977 
	C401.089783,438.842865 400.295166,438.137756 399.560242,437.487274 
	C385.275848,424.844574 368.596375,416.318024 351.087402,409.198547 
	C347.390167,407.695129 343.747192,406.056335 340.095734,404.442566 
	C333.514984,401.534332 330.507660,393.004395 333.836273,386.525146 
	C335.092590,384.079803 337.295715,383.017883 340.008301,383.014740 
	C359.648102,382.992096 379.288055,383.010681 398.927582,382.927643 
	C402.638428,382.911957 403.265076,384.922119 403.235474,388.039001 
	C403.120148,400.188385 403.143372,412.339111 403.113586,424.985657 
z"/>
<path fill="#000000" opacity="1.000000" stroke="none" 
	d="
M506.221252,651.687988 
	C505.292236,658.133301 502.969971,663.376587 497.667175,666.742859 
	C495.160095,668.334534 496.029663,669.850769 497.065277,671.742249 
	C500.641266,678.273499 504.130157,684.852417 507.652405,691.413574 
	C499.471893,695.605652 491.231598,693.295837 487.290833,686.072998 
	C485.056915,681.978577 482.846527,677.871216 480.603119,673.782043 
	C479.302612,671.411499 477.511932,669.725830 474.575531,670.463501 
	C471.549286,671.223755 472.440277,673.865845 472.376343,675.866272 
	C472.237946,680.195312 472.235291,684.533386 472.339569,688.863892 
	C472.412292,691.883362 470.980072,692.882568 468.124756,693.075989 
	C456.734955,693.847656 456.654602,693.842285 456.652710,682.619995 
	C456.649933,666.287109 456.803558,649.952271 456.581604,633.622498 
	C456.519012,629.016052 458.022430,627.432129 462.598907,627.636963 
	C469.418304,627.942322 476.261810,627.682678 483.094788,627.717773 
	C498.584229,627.797302 506.402222,635.758972 506.221252,651.687988 
M485.506409,655.502747 
	C489.493073,653.875793 490.404572,650.648621 489.509583,646.908875 
	C488.631683,643.240356 485.706726,642.167419 482.219513,642.238892 
	C480.889709,642.266174 479.541229,642.360168 478.231018,642.191956 
	C473.663116,641.605469 472.110809,643.454102 472.272278,648.084167 
	C472.549561,656.034302 472.289398,656.054749 480.202179,655.942383 
	C481.695801,655.921143 483.187531,655.769653 485.506409,655.502747 
z"/>
<path fill="#000000" opacity="1.000000" stroke="none" 
	d="
M678.151489,692.037903 
	C664.732849,695.286682 663.089111,694.070435 663.087280,681.352905 
	C663.086853,678.023682 663.209412,674.694519 663.209045,671.365295 
	C663.208801,668.549683 661.933777,667.117920 658.915405,667.209229 
	C654.754150,667.335144 650.583069,667.288147 646.420471,667.167297 
	C643.394897,667.079407 642.280212,668.424072 642.348816,671.380493 
	C642.484070,677.209717 642.300598,683.047241 642.481873,688.874084 
	C642.572754,691.794250 641.712952,693.182312 638.588623,693.163818 
	C624.432922,693.079895 626.856689,694.241028 626.753723,682.123596 
	C626.617859,666.128052 626.840698,650.128662 626.607727,634.135315 
	C626.539734,629.466370 627.879578,627.614990 632.781799,627.690308 
	C642.394104,627.838074 642.396667,627.603821 642.385010,637.156799 
	C642.380737,640.656067 642.581360,644.169739 642.329712,647.650879 
	C642.037048,651.697937 643.825195,652.991455 647.624878,652.750061 
	C650.943970,652.539307 654.308228,652.477112 657.614746,652.772400 
	C661.923950,653.157227 663.160522,651.216858 662.983215,647.243896 
	C662.768066,642.421509 663.022339,637.579956 662.914185,632.750305 
	C662.833496,629.144958 664.360840,627.720337 668.004822,627.759277 
	C680.960022,627.898010 679.166870,626.673584 679.223328,638.420898 
	C679.299316,654.250427 679.254028,670.080688 679.221130,685.910583 
	C679.217041,687.879028 679.619995,689.926086 678.151489,692.037903 
z"/>
<path fill="#000000" opacity="1.000000" stroke="none" 
	d="
M434.215454,689.755432 
	C430.560944,679.355286 433.076447,680.182739 421.560577,680.193115 
	C420.395905,680.194153 419.205566,680.352966 418.070984,680.168579 
	C412.763031,679.305908 410.091553,681.599854 409.057404,686.799072 
	C408.615479,689.020874 408.596619,692.361450 405.431580,692.743713 
	C401.005524,693.278320 396.343719,693.968201 392.106812,692.423645 
	C389.582520,691.503540 391.476532,688.802551 392.016785,687.133484 
	C396.008270,674.801758 400.186737,662.530579 404.288849,650.234558 
	C406.181885,644.560059 408.035400,638.872314 409.906952,633.190613 
	C410.271240,632.084778 410.538635,630.934875 411.018433,629.881653 
	C412.652039,626.295776 416.010803,627.552368 418.499146,627.828186 
	C422.807526,628.305725 429.072632,624.898804 431.148102,630.176880 
	C438.748810,649.505676 444.717255,669.430603 450.876953,689.270447 
	C451.293610,690.612427 451.447083,692.381165 449.834656,692.611694 
	C445.094574,693.289307 440.269165,693.882202 435.596191,692.211426 
	C435.013214,692.003052 434.768646,690.848206 434.215454,689.755432 
M424.284180,658.051514 
	C423.086914,655.232300 423.044861,651.942383 420.507263,648.584351 
	C418.783691,654.871643 417.284058,660.342224 415.713898,666.069946 
	C419.545746,666.916504 422.598907,666.949768 425.654144,666.215576 
	C426.572540,663.381836 425.131531,661.149353 424.284180,658.051514 
z"/>
<path fill="#000000" opacity="1.000000" stroke="none" 
	d="
M547.934082,674.562500 
	C549.939392,666.984314 548.797852,659.629700 549.027527,652.336609 
	C549.237061,645.680481 549.130127,639.013245 549.104492,632.351196 
	C549.092712,629.282776 550.382202,627.803162 553.589233,627.790039 
	C567.921997,627.731628 565.122192,626.590820 565.300476,638.765015 
	C565.446777,648.756653 564.919739,658.772583 565.421021,668.741089 
	C566.153442,683.305725 555.048035,694.360413 538.322021,693.735535 
	C530.192932,693.431885 522.949036,691.034241 517.860168,684.098572 
	C515.212036,680.489441 513.711914,676.523865 513.702637,672.039429 
	C513.675842,659.047546 513.767334,646.054443 513.602478,633.064514 
	C513.554443,629.280945 514.692871,627.671814 518.707825,627.733337 
	C530.984070,627.921448 529.213257,626.722046 529.318726,637.941528 
	C529.412659,647.934387 529.357361,657.928772 529.355957,667.922485 
	C529.355347,672.337463 530.387146,676.333191 534.735718,678.360046 
	C539.016235,680.355164 544.055237,678.858582 547.934082,674.562500 
z"/>
<path fill="#000000" opacity="1.000000" stroke="none" 
	d="
M610.149902,642.278259 
	C604.700928,641.478943 603.002136,643.406311 603.147705,648.572510 
	C603.513367,661.551514 603.172058,674.548950 603.379272,687.534790 
	C603.445862,691.703796 601.840881,693.021484 597.837646,693.106995 
	C586.657288,693.345642 586.424561,693.055115 587.238586,681.846252 
	C588.071228,670.380981 587.561646,658.884338 587.484802,647.399048 
	C587.459900,643.675598 586.252625,641.772461 582.215759,642.318970 
	C580.418030,642.562439 578.557922,642.352661 576.726257,642.336670 
	C570.097473,642.278931 570.060669,642.240540 569.985840,635.658752 
	C569.896057,627.758728 569.895996,627.751404 577.935181,627.751282 
	C590.591064,627.751099 603.250427,627.931763 615.901123,627.678894 
	C620.544067,627.586060 622.345764,629.282471 621.912354,633.751831 
	C621.816528,634.740601 621.844238,635.755676 621.941589,636.746216 
	C622.330078,640.698364 620.902710,642.761597 616.611267,642.306946 
	C614.635315,642.097595 612.618408,642.275024 610.149902,642.278259 
z"/>
<path fill="#000000" opacity="1.000000" stroke="none" 
	d="
M706.182922,689.594238 
	C704.766602,694.511414 700.985107,692.862671 698.137939,692.965820 
	C690.002747,693.260559 690.017700,693.127319 690.023987,685.191345 
	C690.037231,668.530273 690.011169,651.869141 690.034790,635.208069 
	C690.044861,628.080322 690.287476,627.872070 697.281372,627.822205 
	C706.271301,627.758057 706.277161,627.758057 706.271118,636.653015 
	C706.259277,654.147034 706.240173,671.641052 706.182922,689.594238 
z"/>
</svg>